Coordinates
nRows=175
nColumns=2
inDegrees=yes
endheader
time	ankle_angle_r	
3.9375	 -0.503450	
4	 -0.451602	
4.0625	 -0.472434	
4.125	 -0.499081	
4.1875	 -0.508866	
4.25	 -0.532330	
4.3125	 -0.527080	
4.375	 -0.479005	
4.4375	 -0.458905	
4.5	 -0.485635	
4.5625	 -0.502482	
4.625	 -0.504280	
4.6875	 -0.530386	
4.75	 -0.552344	
4.8125	 -0.540949	
4.875	 -0.530941	
4.9375	 -0.523724	
5	 -0.514578	
5.0625	 -0.520913	
5.125	 -0.526811	
5.1875	 -0.536349	
5.25	 -0.558749	
5.3125	 -0.563813	
5.375	 -0.541737	
5.4375	 -0.521548	
5.5	 -0.523256	
5.5625	 -0.520444	
5.625	 -0.502818	
5.6875	 -0.497418	
5.75	 -0.507228	
5.8125	 -0.518935	
5.875	 -0.491606	
5.9375	 -0.445224	
6	 -0.458884	
6.0625	 -0.475709	
6.125	 -0.452750	
6.1875	 -0.463906	
6.25	 -0.500557	
6.3125	 -0.512153	
6.375	 -0.492393	
6.4375	 -0.452282	
6.5	 -0.424344	
6.5625	 -0.443786	
6.625	 -0.508099	
6.6875	 -0.542078	
6.75	 -0.526006	
6.8125	 -0.533135	
6.875	 -0.543933	
6.9375	 -0.519280	
7	 -0.502368	
7.0625	 -0.517564	
7.125	 -0.543067	
7.1875	 -0.542512	
7.25	 -0.534369	
7.3125	 -0.542638	
7.375	 -0.521007	
7.4375	 -0.472849	
7.5	 -0.438762	
7.5625	 -0.427780	
7.625	 -0.442899	
7.6875	 -0.450687	
7.75	 -0.448028	
7.8125	 -0.452618	
7.875	 -0.439179	
7.9375	 -0.425182	
8	 -0.437418	
8.0625	 -0.479429	
8.125	 -0.534271	
8.1875	 -0.549044	
8.25	 -0.533526	
8.3125	 -0.514003	
8.375	 -0.489980	
8.4375	 -0.482709	
8.5	 -0.486876	
8.5625	 -0.506719	
8.625	 -0.539117	
8.6875	 -0.549003	
8.75	 -0.546416	
8.8125	 -0.540473	
8.875	 -0.533819	
8.9375	 -0.537316	
9	 -0.530620	
9.0625	 -0.513516	
9.125	 -0.499593	
9.1875	 -0.487173	
9.25	 -0.472376	
9.3125	 -0.454549	
9.375	 -0.449454	
9.4375	 -0.440354	
9.5	 -0.432971	
9.5625	 -0.474196	
9.625	 -0.528378	
9.6875	 -0.547447	
9.75	 -0.532200	
9.8125	 -0.507355	
9.875	 -0.502524	
9.9375	 -0.501056	
10	 -0.509531	
10.0625	 -0.539969	
10.125	 -0.561840	
10.1875	 -0.568186	
10.25	 -0.553965	
10.3125	 -0.539842	
10.375	 -0.547726	
10.4375	 -0.544288	
10.5	 -0.541439	
10.5625	 -0.553962	
10.625	 -0.551329	
10.6875	 -0.539100	
10.75	 -0.524851	
10.8125	 -0.494620	
10.875	 -0.459096	
10.9375	 -0.461649	
11	 -0.488354	
11.0625	 -0.481834	
11.125	 -0.475409	
11.1875	 -0.491142	
11.25	 -0.496864	
11.3125	 -0.500680	
11.375	 -0.504634	
11.4375	 -0.520442	
11.5	 -0.543705	
11.5625	 -0.544419	
11.625	 -0.550029	
11.6875	 -0.547650	
11.75	 -0.520318	
11.8125	 -0.519182	
11.875	 -0.525795	
11.9375	 -0.526555	
12	 -0.546870	
12.0625	 -0.549842	
12.125	 -0.545416	
12.1875	 -0.568302	
12.25	 -0.582436	
12.3125	 -0.571319	
12.375	 -0.549480	
12.4375	 -0.537991	
12.5	 -0.552742	
12.5625	 -0.565387	
12.625	 -0.555007	
12.6875	 -0.533784	
12.75	 -0.523035	
12.8125	 -0.530720	
12.875	 -0.542538	
12.9375	 -0.552966	
13	 -0.548949	
13.0625	 -0.519663	
13.125	 -0.487490	
13.1875	 -0.478149	
13.25	 -0.473762	
13.3125	 -0.444829	
13.375	 -0.438771	
13.4375	 -0.462094	
13.5	 -0.452683	
13.5625	 -0.457508	
13.625	 -0.504542	
13.6875	 -0.520528	
13.75	 -0.493869	
13.8125	 -0.463826	
13.875	 -0.460400	
13.9375	 -0.482514	
14	 -0.501072	
14.0625	 -0.503121	
14.125	 -0.480318	
14.1875	 -0.450736	
14.25	 -0.449407	
14.3125	 -0.465736	
14.375	 -0.481922	
14.4375	 -0.498357	
14.5	 -0.504099	
14.5625	 -0.491001	
14.625	 -0.474317	
14.6875	 -0.467087	
14.75	 -0.460788	
14.8125	 -0.449897	
